<?xml version="1.0" encoding="UTF-8"?> <svg xmlns="http://www.w3.org/2000/svg" xmlns:xlink="http://www.w3.org/1999/xlink" width="500" zoomAndPan="magnify" viewBox="0 0 375 374.999991" height="500" preserveAspectRatio="xMidYMid meet" version="1.0"><defs><g></g></defs><g fill="#132b63" fill-opacity="1"><g transform="translate(80.828944, 226.676291)"><g><path d="M 22.6875 0.765625 C 16.707031 0.765625 11.921875 -1.109375 8.328125 -4.859375 C 4.742188 -8.609375 2.953125 -13.753906 2.953125 -20.296875 L 2.953125 -58.03125 C 2.953125 -66.164062 4.570312 -72.296875 7.8125 -76.421875 C 11.050781 -80.554688 16.132812 -82.625 23.0625 -82.625 C 29.09375 -82.625 33.953125 -80.972656 37.640625 -77.671875 C 41.328125 -74.367188 43.171875 -69.601562 43.171875 -63.375 L 43.171875 -49.265625 L 26.875 -49.265625 L 26.875 -61.375 C 26.875 -63.71875 26.585938 -65.332031 26.015625 -66.21875 C 25.441406 -67.113281 24.457031 -67.5625 23.0625 -67.5625 C 21.601562 -67.5625 20.601562 -67.050781 20.0625 -66.03125 C 19.519531 -65.019531 19.25 -63.53125 19.25 -61.5625 L 19.25 -20.484375 C 19.25 -18.328125 19.566406 -16.753906 20.203125 -15.765625 C 20.835938 -14.785156 21.789062 -14.296875 23.0625 -14.296875 C 25.601562 -14.296875 26.875 -16.359375 26.875 -20.484375 L 26.875 -35.265625 L 43.359375 -35.265625 L 43.359375 -19.828125 C 43.359375 -6.097656 36.46875 0.765625 22.6875 0.765625 Z M 22.6875 0.765625 "></path></g></g></g><g fill="#132b63" fill-opacity="1"><g transform="translate(136.476992, 226.676291)"><g><path d="M 3.625 -81.859375 L 28.78125 -81.859375 C 32.78125 -81.859375 35.875 -80.953125 38.0625 -79.140625 C 40.257812 -77.328125 41.738281 -74.785156 42.5 -71.515625 C 43.257812 -68.242188 43.640625 -64.066406 43.640625 -58.984375 C 43.640625 -54.347656 43.035156 -50.726562 41.828125 -48.125 C 40.628906 -45.519531 38.535156 -43.707031 35.546875 -42.6875 C 38.023438 -42.1875 39.816406 -40.945312 40.921875 -38.96875 C 42.035156 -37 42.59375 -34.332031 42.59375 -30.96875 L 42.40625 0 L 26.390625 0 L 26.390625 -32.015625 C 26.390625 -34.304688 25.945312 -35.769531 25.0625 -36.40625 C 24.175781 -37.039062 22.554688 -37.359375 20.203125 -37.359375 L 20.203125 0 L 3.625 0 Z M 24.203125 -51.5625 C 26.492188 -51.5625 27.640625 -54.035156 27.640625 -58.984375 C 27.640625 -61.148438 27.539062 -62.769531 27.34375 -63.84375 C 27.15625 -64.925781 26.804688 -65.671875 26.296875 -66.078125 C 25.796875 -66.492188 25.066406 -66.703125 24.109375 -66.703125 L 20.296875 -66.703125 L 20.296875 -51.5625 Z M 24.203125 -51.5625 "></path></g></g></g><g fill="#132b63" fill-opacity="1"><g transform="translate(192.410893, 226.676291)"><g><path d="M 23.0625 0.765625 C 15.625 0.765625 10.253906 -1.078125 6.953125 -4.765625 C 3.648438 -8.453125 2 -14.390625 2 -22.578125 L 2 -30.59375 L 18.109375 -30.59375 L 18.109375 -20.390625 C 18.109375 -16.328125 19.410156 -14.296875 22.015625 -14.296875 C 23.472656 -14.296875 24.488281 -14.722656 25.0625 -15.578125 C 25.632812 -16.441406 25.921875 -17.890625 25.921875 -19.921875 C 25.921875 -22.585938 25.601562 -24.789062 24.96875 -26.53125 C 24.332031 -28.28125 23.519531 -29.742188 22.53125 -30.921875 C 21.550781 -32.097656 19.789062 -33.925781 17.25 -36.40625 L 10.203125 -43.453125 C 4.734375 -48.785156 2 -54.695312 2 -61.1875 C 2 -68.164062 3.601562 -73.484375 6.8125 -77.140625 C 10.019531 -80.796875 14.707031 -82.625 20.875 -82.625 C 28.238281 -82.625 33.539062 -80.671875 36.78125 -76.765625 C 40.019531 -72.859375 41.640625 -66.742188 41.640625 -58.421875 L 24.96875 -58.421875 L 24.875 -64.046875 C 24.875 -65.117188 24.570312 -65.972656 23.96875 -66.609375 C 23.363281 -67.242188 22.519531 -67.5625 21.4375 -67.5625 C 20.164062 -67.5625 19.210938 -67.210938 18.578125 -66.515625 C 17.941406 -65.816406 17.625 -64.863281 17.625 -63.65625 C 17.625 -60.988281 19.148438 -58.226562 22.203125 -55.375 L 31.734375 -46.21875 C 33.953125 -44.0625 35.789062 -42.015625 37.25 -40.078125 C 38.71875 -38.140625 39.894531 -35.847656 40.78125 -33.203125 C 41.675781 -30.566406 42.125 -27.441406 42.125 -23.828125 C 42.125 -15.753906 40.644531 -9.632812 37.6875 -5.46875 C 34.738281 -1.3125 29.863281 0.765625 23.0625 0.765625 Z M 23.0625 0.765625 "></path></g></g></g><g fill="#132b63" fill-opacity="1"><g transform="translate(246.820255, 226.676291)"><g><path d="M 23.0625 0.765625 C 15.625 0.765625 10.253906 -1.078125 6.953125 -4.765625 C 3.648438 -8.453125 2 -14.390625 2 -22.578125 L 2 -30.59375 L 18.109375 -30.59375 L 18.109375 -20.390625 C 18.109375 -16.328125 19.410156 -14.296875 22.015625 -14.296875 C 23.472656 -14.296875 24.488281 -14.722656 25.0625 -15.578125 C 25.632812 -16.441406 25.921875 -17.890625 25.921875 -19.921875 C 25.921875 -22.585938 25.601562 -24.789062 24.96875 -26.53125 C 24.332031 -28.28125 23.519531 -29.742188 22.53125 -30.921875 C 21.550781 -32.097656 19.789062 -33.925781 17.25 -36.40625 L 10.203125 -43.453125 C 4.734375 -48.785156 2 -54.695312 2 -61.1875 C 2 -68.164062 3.601562 -73.484375 6.8125 -77.140625 C 10.019531 -80.796875 14.707031 -82.625 20.875 -82.625 C 28.238281 -82.625 33.539062 -80.671875 36.78125 -76.765625 C 40.019531 -72.859375 41.640625 -66.742188 41.640625 -58.421875 L 24.96875 -58.421875 L 24.875 -64.046875 C 24.875 -65.117188 24.570312 -65.972656 23.96875 -66.609375 C 23.363281 -67.242188 22.519531 -67.5625 21.4375 -67.5625 C 20.164062 -67.5625 19.210938 -67.210938 18.578125 -66.515625 C 17.941406 -65.816406 17.625 -64.863281 17.625 -63.65625 C 17.625 -60.988281 19.148438 -58.226562 22.203125 -55.375 L 31.734375 -46.21875 C 33.953125 -44.0625 35.789062 -42.015625 37.25 -40.078125 C 38.71875 -38.140625 39.894531 -35.847656 40.78125 -33.203125 C 41.675781 -30.566406 42.125 -27.441406 42.125 -23.828125 C 42.125 -15.753906 40.644531 -9.632812 37.6875 -5.46875 C 34.738281 -1.3125 29.863281 0.765625 23.0625 0.765625 Z M 23.0625 0.765625 "></path></g></g></g><path stroke-linecap="butt" transform="matrix(-1.143482, 0, 0, -1.143482, 330.451593, 122.604916)" fill="none" stroke-linejoin="miter" d="M -0.00133959 5.000689 L 84.434444 5.000689 " stroke="#132b63" stroke-width="10" stroke-opacity="1" stroke-miterlimit="4"></path><path stroke-linecap="butt" transform="matrix(0, -1.143482, 1.143482, 0, 319.022621, 208.890044)" fill="none" stroke-linejoin="miter" d="M -0.0005082 4.998471 L 82.464185 4.998471 " stroke="#132b63" stroke-width="10" stroke-opacity="1" stroke-miterlimit="4"></path><path stroke-linecap="butt" transform="matrix(1.143482, 0, 0, 1.143482, 43.366019, 250.539593)" fill="none" stroke-linejoin="miter" d="M 0.00102166 5.000709 L 84.433389 5.000709 " stroke="#132b63" stroke-width="10" stroke-opacity="1" stroke-miterlimit="4"></path><path stroke-linecap="butt" transform="matrix(0, 1.143482, -1.143482, 0, 54.794975, 164.254458)" fill="none" stroke-linejoin="miter" d="M -0.00048253 4.999511 L 82.46421 4.999511 " stroke="#132b63" stroke-width="10" stroke-opacity="1" stroke-miterlimit="4"></path><g fill="#132b63" fill-opacity="1"><g transform="translate(147.035665, 265.074124)"><g><path d="M 1.53125 -18.546875 L 3.671875 -18.546875 L 3.671875 -8.203125 L 6.75 -15.625 L 8.90625 -15.625 L 5.609375 -7.90625 L 9.078125 0 L 6.875 0 L 3.671875 -7.609375 L 3.671875 0 L 1.53125 0 Z M 1.53125 -18.546875 "></path></g></g></g><g fill="#132b63" fill-opacity="1"><g transform="translate(156.059251, 265.074124)"><g><path d="M 7.765625 -3.578125 C 7.753906 -1.054688 6.640625 0.203125 4.421875 0.203125 C 3.296875 0.203125 2.453125 -0.148438 1.890625 -0.859375 C 1.328125 -1.578125 1.046875 -2.726562 1.046875 -4.3125 L 1.046875 -5.5 L 3.109375 -5.5 L 3.109375 -4.328125 C 3.109375 -2.515625 3.519531 -1.609375 4.34375 -1.609375 C 4.789062 -1.609375 5.113281 -1.753906 5.3125 -2.046875 C 5.519531 -2.335938 5.625 -2.847656 5.625 -3.578125 C 5.625 -4.703125 5.097656 -5.78125 4.046875 -6.8125 C 3.972656 -6.882812 3.789062 -7.050781 3.5 -7.3125 C 3.21875 -7.582031 3.035156 -7.765625 2.953125 -7.859375 C 1.597656 -9.148438 0.921875 -10.578125 0.921875 -12.140625 C 0.921875 -13.378906 1.210938 -14.300781 1.796875 -14.90625 C 2.378906 -15.507812 3.207031 -15.8125 4.28125 -15.8125 C 5.007812 -15.8125 5.601562 -15.664062 6.0625 -15.375 C 7.019531 -14.75 7.5 -13.269531 7.5 -10.9375 L 7.5 -10.1875 L 5.46875 -10.1875 L 5.46875 -11.28125 C 5.46875 -12.1875 5.378906 -12.863281 5.203125 -13.3125 C 5.023438 -13.757812 4.71875 -13.984375 4.28125 -13.984375 C 3.851562 -13.984375 3.53125 -13.847656 3.3125 -13.578125 C 3.101562 -13.304688 3 -12.847656 3 -12.203125 C 3 -11.191406 3.472656 -10.210938 4.421875 -9.265625 L 5.5625 -8.21875 C 7.03125 -6.800781 7.765625 -5.253906 7.765625 -3.578125 Z M 7.765625 -3.578125 "></path></g></g></g><g fill="#132b63" fill-opacity="1"><g transform="translate(164.447231, 265.074124)"><g><path d="M 1.5625 -15.625 L 3.703125 -15.625 L 3.703125 0 L 1.5625 0 Z M 1.5625 -19.03125 L 3.703125 -19.03125 L 3.703125 -17.078125 L 1.5625 -17.078125 Z M 1.5625 -19.03125 "></path></g></g></g><g fill="#132b63" fill-opacity="1"><g transform="translate(169.688419, 265.074124)"><g><path d="M 1.296875 -10.78125 C 1.296875 -12.757812 1.648438 -14.132812 2.359375 -14.90625 C 2.910156 -15.507812 3.726562 -15.8125 4.8125 -15.8125 C 6.382812 -15.8125 7.375 -15.132812 7.78125 -13.78125 C 8 -13.019531 8.109375 -11.988281 8.109375 -10.6875 L 8.109375 -7.75 L 3.4375 -7.75 L 3.4375 -4.625 C 3.4375 -3.269531 3.539062 -2.425781 3.75 -2.09375 C 3.96875 -1.757812 4.3125 -1.59375 4.78125 -1.59375 C 5.25 -1.59375 5.5625 -1.785156 5.71875 -2.171875 C 5.875 -2.566406 5.953125 -2.988281 5.953125 -3.4375 C 5.960938 -3.894531 5.96875 -4.28125 5.96875 -4.59375 L 5.96875 -5.859375 L 8.0625 -5.859375 L 8.0625 -5.1875 C 8.0625 -3.53125 7.945312 -2.367188 7.71875 -1.703125 C 7.488281 -1.035156 7.132812 -0.550781 6.65625 -0.25 C 6.1875 0.0390625 5.601562 0.1875 4.90625 0.1875 C 4.207031 0.1875 3.644531 0.0976562 3.21875 -0.078125 C 2.800781 -0.253906 2.46875 -0.488281 2.21875 -0.78125 C 1.976562 -1.070312 1.765625 -1.535156 1.578125 -2.171875 C 1.390625 -2.816406 1.296875 -3.847656 1.296875 -5.265625 Z M 5.96875 -11.1875 C 5.96875 -12.289062 5.925781 -12.957031 5.84375 -13.1875 C 5.769531 -13.414062 5.671875 -13.617188 5.546875 -13.796875 C 5.421875 -13.972656 5.191406 -14.0625 4.859375 -14.0625 C 4.234375 -14.0625 3.835938 -13.796875 3.671875 -13.265625 C 3.503906 -12.742188 3.421875 -12.023438 3.421875 -11.109375 L 3.421875 -9.1875 L 5.96875 -9.1875 Z M 5.046875 -0.078125 L 5.9375 -0.078125 C 5.300781 0.535156 4.789062 1.1875 4.40625 1.875 C 4.03125 2.5625 3.84375 3.148438 3.84375 3.640625 C 3.84375 4.609375 4.363281 5.09375 5.40625 5.09375 C 5.90625 5.09375 6.363281 5.019531 6.78125 4.875 L 6.78125 6.078125 C 6.632812 6.160156 6.382812 6.242188 6.03125 6.328125 C 5.675781 6.410156 5.335938 6.453125 5.015625 6.453125 C 4.097656 6.453125 3.398438 6.226562 2.921875 5.78125 C 2.441406 5.34375 2.203125 4.757812 2.203125 4.03125 C 2.203125 3.3125 2.453125 2.570312 2.953125 1.8125 C 3.460938 1.050781 4.160156 0.421875 5.046875 -0.078125 Z M 5.046875 -0.078125 "></path></g></g></g><g fill="#132b63" fill-opacity="1"><g transform="translate(178.993346, 265.074124)"><g><path d="M 4.171875 -15.8125 C 5.148438 -15.8125 5.785156 -15.367188 6.078125 -14.484375 L 6.078125 -15.625 L 8.21875 -15.625 L 8.21875 -1.453125 C 8.21875 0.398438 7.515625 1.585938 6.109375 2.109375 C 5.617188 2.296875 5.054688 2.390625 4.421875 2.390625 C 3.140625 2.390625 2.078125 2.054688 1.234375 1.390625 L 2.015625 -0.078125 C 2.765625 0.441406 3.566406 0.703125 4.421875 0.703125 C 4.984375 0.703125 5.398438 0.523438 5.671875 0.171875 C 5.941406 -0.179688 6.078125 -0.660156 6.078125 -1.265625 L 6.078125 -2.75 C 5.890625 -2.257812 5.628906 -1.921875 5.296875 -1.734375 C 4.941406 -1.546875 4.507812 -1.453125 4 -1.453125 C 2.957031 -1.453125 2.238281 -1.894531 1.84375 -2.78125 C 1.457031 -3.664062 1.265625 -4.851562 1.265625 -6.34375 L 1.265625 -10.8125 C 1.265625 -14.144531 2.234375 -15.8125 4.171875 -15.8125 Z M 6.078125 -11.125 C 6.078125 -12.144531 5.984375 -12.882812 5.796875 -13.34375 C 5.617188 -13.800781 5.296875 -14.03125 4.828125 -14.03125 C 4.367188 -14.03125 4.046875 -13.898438 3.859375 -13.640625 C 3.671875 -13.378906 3.550781 -13.050781 3.5 -12.65625 C 3.445312 -12.257812 3.421875 -11.757812 3.421875 -11.15625 L 3.421875 -6.28125 C 3.421875 -5.175781 3.519531 -4.378906 3.71875 -3.890625 C 3.914062 -3.398438 4.296875 -3.15625 4.859375 -3.15625 C 5.148438 -3.15625 5.378906 -3.238281 5.546875 -3.40625 C 5.890625 -3.75 6.066406 -4.71875 6.078125 -6.3125 Z M 6.078125 -11.125 "></path></g></g></g><g fill="#132b63" fill-opacity="1"><g transform="translate(188.673388, 265.074124)"><g><path d="M 1.296875 -10.703125 C 1.296875 -13.234375 1.878906 -14.8125 3.046875 -15.4375 C 3.515625 -15.6875 4.0625 -15.8125 4.6875 -15.8125 C 6.320312 -15.8125 7.363281 -15.15625 7.8125 -13.84375 C 8.09375 -13.019531 8.234375 -11.972656 8.234375 -10.703125 L 8.234375 -5.171875 C 8.234375 -2.972656 7.9375 -1.53125 7.34375 -0.84375 C 6.757812 -0.15625 5.90625 0.1875 4.78125 0.1875 C 3.144531 0.1875 2.109375 -0.503906 1.671875 -1.890625 C 1.421875 -2.691406 1.296875 -3.785156 1.296875 -5.171875 Z M 6.09375 -11.125 C 6.09375 -12.613281 5.878906 -13.519531 5.453125 -13.84375 C 5.273438 -13.96875 5.046875 -14.03125 4.765625 -14.03125 C 4.203125 -14.03125 3.835938 -13.773438 3.671875 -13.265625 C 3.515625 -12.765625 3.4375 -12.050781 3.4375 -11.125 L 3.4375 -4.578125 C 3.4375 -3.035156 3.648438 -2.109375 4.078125 -1.796875 C 4.253906 -1.660156 4.472656 -1.59375 4.734375 -1.59375 C 4.742188 -1.59375 4.753906 -1.59375 4.765625 -1.59375 C 5.316406 -1.59375 5.675781 -1.847656 5.84375 -2.359375 C 6.007812 -2.878906 6.09375 -3.617188 6.09375 -4.578125 Z M 6.09375 -11.125 "></path></g></g></g><g fill="#132b63" fill-opacity="1"><g transform="translate(198.197126, 265.074124)"><g><path d="M 9.796875 -15.625 L 11.546875 -15.625 L 9.65625 0 L 7.6875 0 L 6.125 -12.234375 L 4.234375 0 L 2.359375 0 L 0.53125 -15.625 L 2.328125 -15.625 L 3.140625 -6.9375 L 3.390625 -3.9375 L 3.484375 -3.9375 L 3.875 -6.9375 L 5.109375 -15.625 L 6.984375 -15.625 L 8.21875 -7.171875 L 8.65625 -3.9375 L 8.734375 -3.9375 L 8.984375 -7.1875 Z M 9.796875 -15.625 "></path></g></g></g><g fill="#132b63" fill-opacity="1"><g transform="translate(210.284146, 265.074124)"><g><path d="M 1.296875 -10.703125 C 1.296875 -13.234375 1.878906 -14.8125 3.046875 -15.4375 C 3.515625 -15.6875 4.0625 -15.8125 4.6875 -15.8125 C 6.320312 -15.8125 7.363281 -15.15625 7.8125 -13.84375 C 8.09375 -13.019531 8.234375 -11.972656 8.234375 -10.703125 L 8.234375 -5.171875 C 8.234375 -2.972656 7.9375 -1.53125 7.34375 -0.84375 C 6.757812 -0.15625 5.90625 0.1875 4.78125 0.1875 C 3.144531 0.1875 2.109375 -0.503906 1.671875 -1.890625 C 1.421875 -2.691406 1.296875 -3.785156 1.296875 -5.171875 Z M 6.09375 -11.125 C 6.09375 -12.613281 5.878906 -13.519531 5.453125 -13.84375 C 5.273438 -13.96875 5.046875 -14.03125 4.765625 -14.03125 C 4.203125 -14.03125 3.835938 -13.773438 3.671875 -13.265625 C 3.515625 -12.765625 3.4375 -12.050781 3.4375 -11.125 L 3.4375 -4.578125 C 3.4375 -3.035156 3.648438 -2.109375 4.078125 -1.796875 C 4.253906 -1.660156 4.472656 -1.59375 4.734375 -1.59375 C 4.742188 -1.59375 4.753906 -1.59375 4.765625 -1.59375 C 5.316406 -1.59375 5.675781 -1.847656 5.84375 -2.359375 C 6.007812 -2.878906 6.09375 -3.617188 6.09375 -4.578125 Z M 6.09375 -11.125 "></path></g></g></g><g fill="#132b63" fill-opacity="1"><g transform="translate(219.807884, 265.074124)"><g><path d="M 7.765625 -3.578125 C 7.753906 -1.054688 6.640625 0.203125 4.421875 0.203125 C 3.296875 0.203125 2.453125 -0.148438 1.890625 -0.859375 C 1.328125 -1.578125 1.046875 -2.726562 1.046875 -4.3125 L 1.046875 -5.5 L 3.109375 -5.5 L 3.109375 -4.328125 C 3.109375 -2.515625 3.519531 -1.609375 4.34375 -1.609375 C 4.789062 -1.609375 5.113281 -1.753906 5.3125 -2.046875 C 5.519531 -2.335938 5.625 -2.847656 5.625 -3.578125 C 5.625 -4.703125 5.097656 -5.78125 4.046875 -6.8125 C 3.972656 -6.882812 3.789062 -7.050781 3.5 -7.3125 C 3.21875 -7.582031 3.035156 -7.765625 2.953125 -7.859375 C 1.597656 -9.148438 0.921875 -10.578125 0.921875 -12.140625 C 0.921875 -13.378906 1.210938 -14.300781 1.796875 -14.90625 C 2.378906 -15.507812 3.207031 -15.8125 4.28125 -15.8125 C 5.007812 -15.8125 5.601562 -15.664062 6.0625 -15.375 C 7.019531 -14.75 7.5 -13.269531 7.5 -10.9375 L 7.5 -10.1875 L 5.46875 -10.1875 L 5.46875 -11.28125 C 5.46875 -12.1875 5.378906 -12.863281 5.203125 -13.3125 C 5.023438 -13.757812 4.71875 -13.984375 4.28125 -13.984375 C 3.851562 -13.984375 3.53125 -13.847656 3.3125 -13.578125 C 3.101562 -13.304688 3 -12.847656 3 -12.203125 C 3 -11.191406 3.472656 -10.210938 4.421875 -9.265625 L 5.5625 -8.21875 C 7.03125 -6.800781 7.765625 -5.253906 7.765625 -3.578125 Z M 2.453125 -18.203125 L 6.8125 -20.015625 L 6.8125 -17.9375 L 2.453125 -17.046875 Z M 2.453125 -18.203125 "></path></g></g></g><g fill="#132b63" fill-opacity="1"><g transform="translate(228.195865, 265.074124)"><g><path d="M 1.296875 -10.5 C 1.296875 -11.851562 1.394531 -12.84375 1.59375 -13.46875 C 1.800781 -14.101562 2.035156 -14.566406 2.296875 -14.859375 C 2.859375 -15.492188 3.679688 -15.8125 4.765625 -15.8125 C 5.859375 -15.8125 6.644531 -15.539062 7.125 -15 C 7.601562 -14.457031 7.894531 -13.65625 8 -12.59375 C 8.039062 -12.132812 8.066406 -11.585938 8.078125 -10.953125 L 8.078125 -9.875 L 5.96875 -9.875 L 5.96875 -11.25 C 5.96875 -12.21875 5.929688 -12.851562 5.859375 -13.15625 C 5.578125 -13.59375 5.242188 -13.867188 4.859375 -13.984375 C 4.171875 -13.984375 3.75 -13.644531 3.59375 -12.96875 C 3.488281 -12.53125 3.4375 -11.9375 3.4375 -11.1875 L 3.4375 -4.53125 C 3.4375 -3.457031 3.515625 -2.707031 3.671875 -2.28125 C 3.835938 -1.851562 4.15625 -1.640625 4.625 -1.640625 C 5.09375 -1.640625 5.429688 -1.789062 5.640625 -2.09375 C 5.859375 -2.394531 5.96875 -3.191406 5.96875 -4.484375 L 5.96875 -6 L 8.078125 -6 L 8.078125 -4.984375 C 8.078125 -2.859375 7.796875 -1.460938 7.234375 -0.796875 C 6.671875 -0.140625 5.8125 0.1875 4.65625 0.1875 C 2.832031 0.1875 1.765625 -0.785156 1.453125 -2.734375 C 1.347656 -3.441406 1.296875 -4.285156 1.296875 -5.265625 Z M 2.890625 -18.203125 L 7.25 -20.015625 L 7.25 -17.9375 L 2.890625 -17.046875 Z M 2.890625 -18.203125 "></path></g></g></g><g fill="#132b63" fill-opacity="1"><g transform="translate(141.390303, 125.134329)"><g><path d="M 3.671875 -14.328125 C 3.859375 -14.804688 4.148438 -15.164062 4.546875 -15.40625 C 4.941406 -15.644531 5.363281 -15.765625 5.8125 -15.765625 C 7.0625 -15.765625 7.851562 -15.117188 8.1875 -13.828125 C 8.394531 -13.023438 8.5 -11.992188 8.5 -10.734375 L 8.5 -5.078125 C 8.5 -2.992188 8.234375 -1.59375 7.703125 -0.875 C 7.179688 -0.164062 6.445312 0.1875 5.5 0.1875 C 5.113281 0.1875 4.753906 0.0703125 4.421875 -0.15625 C 4.097656 -0.394531 3.847656 -0.691406 3.671875 -1.046875 L 3.671875 2.859375 L 1.53125 2.859375 L 1.53125 -15.625 L 3.671875 -15.625 Z M 6.34375 -11.109375 C 6.34375 -11.179688 6.34375 -11.25 6.34375 -11.3125 C 6.34375 -11.375 6.34375 -11.429688 6.34375 -11.484375 C 6.34375 -11.535156 6.34375 -11.585938 6.34375 -11.640625 C 6.34375 -11.691406 6.34375 -11.738281 6.34375 -11.78125 C 6.34375 -11.820312 6.34375 -11.859375 6.34375 -11.890625 C 6.34375 -12.421875 6.300781 -12.8125 6.21875 -13.0625 C 6.113281 -13.332031 6.019531 -13.53125 5.9375 -13.65625 C 5.75 -13.90625 5.484375 -14.03125 5.140625 -14.03125 C 4.796875 -14.03125 4.523438 -13.960938 4.328125 -13.828125 C 3.890625 -13.523438 3.671875 -12.617188 3.671875 -11.109375 L 3.671875 -4.703125 C 3.671875 -3.597656 3.765625 -2.804688 3.953125 -2.328125 C 4.140625 -1.847656 4.492188 -1.609375 5.015625 -1.609375 C 5.546875 -1.609375 5.898438 -1.847656 6.078125 -2.328125 C 6.253906 -2.816406 6.34375 -3.632812 6.34375 -4.78125 Z M 6.34375 -11.109375 "></path></g></g></g><g fill="#132b63" fill-opacity="1"><g transform="translate(151.164118, 125.134329)"><g><path d="M 6.34375 -15.8125 C 6.363281 -15.8125 6.375 -15.363281 6.375 -14.46875 L 6.375 -14 C 5.113281 -14 4.210938 -13.566406 3.671875 -12.703125 L 3.671875 0 L 1.53125 0 L 1.53125 -15.625 L 3.671875 -15.625 L 3.671875 -13.890625 C 3.859375 -14.503906 4.175781 -14.976562 4.625 -15.3125 C 5.082031 -15.644531 5.65625 -15.8125 6.34375 -15.8125 Z M 6.34375 -15.8125 "></path></g></g></g><g fill="#132b63" fill-opacity="1"><g transform="translate(157.947443, 125.134329)"><g><path d="M 6.109375 -8.625 C 5.234375 -8.226562 4.648438 -7.921875 4.359375 -7.703125 C 4.066406 -7.484375 3.84375 -7.226562 3.6875 -6.9375 C 3.539062 -6.65625 3.46875 -6.1875 3.46875 -5.53125 L 3.46875 -4.078125 C 3.46875 -3.160156 3.546875 -2.515625 3.703125 -2.140625 C 3.867188 -1.773438 4.144531 -1.59375 4.53125 -1.59375 C 4.914062 -1.59375 5.25 -1.703125 5.53125 -1.921875 C 5.8125 -2.148438 6.003906 -2.398438 6.109375 -2.671875 Z M 1.515625 -11.109375 C 1.515625 -12.992188 1.804688 -14.25 2.390625 -14.875 C 2.984375 -15.5 3.828125 -15.8125 4.921875 -15.8125 C 6.015625 -15.8125 6.804688 -15.546875 7.296875 -15.015625 C 7.785156 -14.492188 8.082031 -13.648438 8.1875 -12.484375 C 8.238281 -11.984375 8.265625 -11.367188 8.265625 -10.640625 L 8.265625 0 L 6.125 0 L 6.125 -1.359375 C 6.007812 -0.984375 5.765625 -0.640625 5.390625 -0.328125 C 5.015625 -0.015625 4.546875 0.140625 3.984375 0.140625 C 2.210938 0.140625 1.320312 -1.242188 1.3125 -4.015625 L 1.3125 -5.53125 C 1.3125 -6.425781 1.554688 -7.191406 2.046875 -7.828125 C 2.535156 -8.460938 3.890625 -9.1875 6.109375 -10 L 6.109375 -11.21875 C 6.109375 -12.550781 6.007812 -13.351562 5.8125 -13.625 C 5.625 -13.894531 5.289062 -14.03125 4.8125 -14.03125 C 4.34375 -14.03125 4.03125 -13.828125 3.875 -13.421875 C 3.71875 -13.015625 3.640625 -12.273438 3.640625 -11.203125 L 3.640625 -10.65625 L 1.515625 -10.65625 Z M 1.515625 -11.109375 "></path></g></g></g><g fill="#132b63" fill-opacity="1"><g transform="translate(167.596219, 125.134329)"><g><path d="M 1.53125 -18.546875 L 3.671875 -18.546875 L 3.671875 -8.203125 L 6.75 -15.625 L 8.90625 -15.625 L 5.609375 -7.90625 L 9.078125 0 L 6.875 0 L 3.671875 -7.609375 L 3.671875 0 L 1.53125 0 Z M 1.53125 -18.546875 "></path></g></g></g><g fill="#132b63" fill-opacity="1"><g transform="translate(176.619805, 125.134329)"><g><path d="M 1.90625 -18.34375 L 4.046875 -18.34375 L 4.046875 -15.5 L 5.734375 -15.5 L 5.734375 -13.921875 L 4.046875 -13.921875 L 4.046875 -2.515625 C 4.046875 -2.109375 4.140625 -1.851562 4.328125 -1.75 C 4.515625 -1.65625 4.988281 -1.609375 5.75 -1.609375 L 5.75 0.09375 L 4.28125 0.09375 C 3.289062 0.09375 2.644531 -0.0820312 2.34375 -0.4375 C 2.050781 -0.800781 1.90625 -1.429688 1.90625 -2.328125 L 1.90625 -13.921875 L 0.484375 -13.921875 L 0.484375 -15.5 L 1.90625 -15.5 Z M 1.90625 -18.34375 "></path></g></g></g><g fill="#132b63" fill-opacity="1"><g transform="translate(182.99675, 125.134329)"><g><path d="M 5.8125 -15.625 L 7.875 -15.625 L 5.28125 0.296875 C 5.15625 1.171875 4.992188 1.738281 4.796875 2 C 4.609375 2.257812 4.394531 2.425781 4.15625 2.5 C 3.914062 2.570312 3.609375 2.609375 3.234375 2.609375 L 1.140625 2.609375 L 1.140625 1 L 1.875 1 C 2.601562 1 3.003906 0.914062 3.078125 0.75 C 3.140625 0.675781 3.171875 0.523438 3.171875 0.296875 C 3.171875 0.078125 3.144531 -0.203125 3.09375 -0.546875 L 0.546875 -15.625 L 2.609375 -15.625 L 3.734375 -7.5 L 4.203125 -3.265625 L 4.390625 -3.265625 L 4.796875 -7.5 Z M 5.8125 -15.625 "></path></g></g></g><g fill="#132b63" fill-opacity="1"><g transform="translate(191.238853, 125.134329)"><g><path d="M 1.296875 -10.5 C 1.296875 -11.851562 1.394531 -12.84375 1.59375 -13.46875 C 1.800781 -14.101562 2.035156 -14.566406 2.296875 -14.859375 C 2.859375 -15.492188 3.679688 -15.8125 4.765625 -15.8125 C 5.859375 -15.8125 6.644531 -15.539062 7.125 -15 C 7.601562 -14.457031 7.894531 -13.65625 8 -12.59375 C 8.039062 -12.132812 8.066406 -11.585938 8.078125 -10.953125 L 8.078125 -9.875 L 5.96875 -9.875 L 5.96875 -11.25 C 5.96875 -12.21875 5.929688 -12.851562 5.859375 -13.15625 C 5.578125 -13.59375 5.242188 -13.867188 4.859375 -13.984375 C 4.171875 -13.984375 3.75 -13.644531 3.59375 -12.96875 C 3.488281 -12.53125 3.4375 -11.9375 3.4375 -11.1875 L 3.4375 -4.53125 C 3.4375 -3.457031 3.515625 -2.707031 3.671875 -2.28125 C 3.835938 -1.851562 4.15625 -1.640625 4.625 -1.640625 C 5.09375 -1.640625 5.429688 -1.789062 5.640625 -2.09375 C 5.859375 -2.394531 5.96875 -3.191406 5.96875 -4.484375 L 5.96875 -6 L 8.078125 -6 L 8.078125 -4.984375 C 8.078125 -2.859375 7.796875 -1.460938 7.234375 -0.796875 C 6.671875 -0.140625 5.8125 0.1875 4.65625 0.1875 C 2.832031 0.1875 1.765625 -0.785156 1.453125 -2.734375 C 1.347656 -3.441406 1.296875 -4.285156 1.296875 -5.265625 Z M 1.296875 -10.5 "></path></g></g></g><g fill="#132b63" fill-opacity="1"><g transform="translate(200.408316, 125.134329)"><g><path d="M 1.046875 -15.625 L 6.4375 -15.625 L 6.4375 -14.15625 L 2.984375 -1.828125 L 6.265625 -1.828125 L 6.265625 0 L 0.796875 0 L 0.796875 -1.59375 L 4.234375 -13.78125 L 1.046875 -13.78125 Z M 1.046875 -15.625 "></path></g></g></g><g fill="#132b63" fill-opacity="1"><g transform="translate(207.493811, 125.134329)"><g><path d="M 3.671875 -13.96875 C 3.804688 -14.476562 4.109375 -14.914062 4.578125 -15.28125 C 5.046875 -15.644531 5.628906 -15.828125 6.328125 -15.828125 C 7.023438 -15.828125 7.59375 -15.539062 8.03125 -14.96875 C 8.46875 -14.40625 8.6875 -13.570312 8.6875 -12.46875 L 8.6875 0 L 6.546875 0 L 6.546875 -12.453125 C 6.546875 -12.984375 6.421875 -13.378906 6.171875 -13.640625 C 5.929688 -13.898438 5.59375 -14.03125 5.15625 -14.03125 C 4.726562 -14.03125 4.375 -13.878906 4.09375 -13.578125 C 3.8125 -13.285156 3.671875 -12.84375 3.671875 -12.25 L 3.671875 0 L 1.53125 0 L 1.53125 -15.625 L 3.671875 -15.625 Z M 3.671875 -13.96875 "></path></g></g></g><g fill="#132b63" fill-opacity="1"><g transform="translate(217.60106, 125.134329)"><g><path d="M 6.109375 -8.625 C 5.234375 -8.226562 4.648438 -7.921875 4.359375 -7.703125 C 4.066406 -7.484375 3.84375 -7.226562 3.6875 -6.9375 C 3.539062 -6.65625 3.46875 -6.1875 3.46875 -5.53125 L 3.46875 -4.078125 C 3.46875 -3.160156 3.546875 -2.515625 3.703125 -2.140625 C 3.867188 -1.773438 4.144531 -1.59375 4.53125 -1.59375 C 4.914062 -1.59375 5.25 -1.703125 5.53125 -1.921875 C 5.8125 -2.148438 6.003906 -2.398438 6.109375 -2.671875 Z M 1.515625 -11.109375 C 1.515625 -12.992188 1.804688 -14.25 2.390625 -14.875 C 2.984375 -15.5 3.828125 -15.8125 4.921875 -15.8125 C 6.015625 -15.8125 6.804688 -15.546875 7.296875 -15.015625 C 7.785156 -14.492188 8.082031 -13.648438 8.1875 -12.484375 C 8.238281 -11.984375 8.265625 -11.367188 8.265625 -10.640625 L 8.265625 0 L 6.125 0 L 6.125 -1.359375 C 6.007812 -0.984375 5.765625 -0.640625 5.390625 -0.328125 C 5.015625 -0.015625 4.546875 0.140625 3.984375 0.140625 C 2.210938 0.140625 1.320312 -1.242188 1.3125 -4.015625 L 1.3125 -5.53125 C 1.3125 -6.425781 1.554688 -7.191406 2.046875 -7.828125 C 2.535156 -8.460938 3.890625 -9.1875 6.109375 -10 L 6.109375 -11.21875 C 6.109375 -12.550781 6.007812 -13.351562 5.8125 -13.625 C 5.625 -13.894531 5.289062 -14.03125 4.8125 -14.03125 C 4.34375 -14.03125 4.03125 -13.828125 3.875 -13.421875 C 3.71875 -13.015625 3.640625 -12.273438 3.640625 -11.203125 L 3.640625 -10.65625 L 1.515625 -10.65625 Z M 1.515625 -11.109375 "></path></g></g></g></svg> 